<mxfile host="app.diagrams.net" modified="2024-05-28T06:19:17.632Z" agent="Mozilla/5.0 (Windows NT 6.1; WOW64) AppleWebKit/537.36 (KHTML, like Gecko) Chrome/109.0.0.0 Safari/537.36 OPR/95.0.0.0" version="24.4.9" etag="yyohOw9VACmMhrBd03SC" type="github">
  <diagram name="Страница — 1" id="3I7ucMHDLwJmt1TpB72f">
    <mxGraphModel>
      <root>
        <mxCell id="0" />
        <mxCell id="1" parent="0" />
      </root>
    </mxGraphModel>
  </diagram>
</mxfile>
